<svg preserveAspectRatio="none" width="100%" height="100%" overflow="visible" style="display: block;" viewBox="0 0 19 14.7279" fill="none" xmlns="http://www.w3.org/2000/svg">
<g id="Group 132">
<path id="Line 19" d="M1 6.36396C0.447715 6.36396 0 6.81168 0 7.36396C0 7.91625 0.447715 8.36396 1 8.36396V7.36396V6.36396ZM18.7071 8.07107C19.0976 7.68054 19.0976 7.04738 18.7071 6.65685L12.3431 0.292893C11.9526 -0.097631 11.3195 -0.097631 10.9289 0.292893C10.5384 0.683418 10.5384 1.31658 10.9289 1.70711L16.5858 7.36396L10.9289 13.0208C10.5384 13.4113 10.5384 14.0445 10.9289 14.435C11.3195 14.8256 11.9526 14.8256 12.3431 14.435L18.7071 8.07107ZM1 7.36396V8.36396H18V7.36396V6.36396H1V7.36396Z" fill="var(--stroke-0, #E31B22)"/>
</g>
</svg>
