<svg preserveAspectRatio="none" width="100%" height="100%" overflow="visible" style="display: block;" viewBox="0 0 17.2719 14.7279" fill="none" xmlns="http://www.w3.org/2000/svg">
<path id="Line 19" d="M1 6.36396C0.447715 6.36396 0 6.81168 0 7.36396C0 7.91625 0.447715 8.36396 1 8.36396V7.36396V6.36396ZM16.979 8.07107C17.3695 7.68054 17.3695 7.04738 16.979 6.65685L10.615 0.292893C10.2245 -0.097631 9.59132 -0.097631 9.2008 0.292893C8.81028 0.683418 8.81028 1.31658 9.2008 1.70711L14.8577 7.36396L9.2008 13.0208C8.81028 13.4113 8.81028 14.0445 9.2008 14.435C9.59132 14.8256 10.2245 14.8256 10.615 14.435L16.979 8.07107ZM1 7.36396V8.36396H16.2719V7.36396V6.36396H1V7.36396Z" fill="var(--stroke-0, #E31B22)"/>
</svg>
