<svg preserveAspectRatio="none" width="100%" height="100%" overflow="visible" style="display: block;" viewBox="0 0 51 51" fill="none" xmlns="http://www.w3.org/2000/svg">
<g id="MH Logo">
<path id="Vector" d="M51 0H0V51H51V0Z" fill="var(--fill-0, #E31B22)"/>
<path id="Vector_2" d="M19.9018 16.4879L18.5233 4.12107H14.9874L12.0905 12.6324L8.99248 4.12107H5.45655L4.15705 16.4879H7.054L7.65349 8.23855L10.572 16.4879H13.2894L16.0679 8.2565L16.8469 16.4879H19.9018Z" fill="var(--fill-0, white)"/>
<path id="Vector_3" d="M26.1732 16.7643C28.4742 16.7643 29.7343 15.5976 29.7881 15.5581L28.6573 13.7058C28.6035 13.7417 27.6737 14.3735 26.5824 14.3735C25.0639 14.3735 24.3388 13.336 24.3388 11.8714C24.3388 10.4068 25.3045 9.40522 26.7511 9.40522C27.6414 9.40522 28.4024 9.90779 28.4742 9.96164L29.6409 8.16316C29.5117 7.97649 28.3809 7.01443 26.3204 7.01443C23.5383 7.01443 21.3521 9.10727 21.3521 11.9252C21.3521 14.7432 23.1865 16.7643 26.1732 16.7643Z" fill="var(--fill-0, white)"/>
<path id="Vector_4" d="M14.3736 46.843V34.4763H11.3222V39.204H7.20836V34.4763H4.15705V46.843H7.20836V41.6702H11.3222V46.843H14.3736Z" fill="var(--fill-0, white)"/>
<g id="Group">
<path id="Vector_5" d="M18.4513 37.4952C19.3236 37.4952 20.0129 36.7737 20.0129 35.887C20.0129 35.0003 19.3236 34.2968 18.4513 34.2968C17.579 34.2968 16.8718 34.9968 16.8718 35.887C16.8718 36.7773 17.579 37.4952 18.4513 37.4952Z" fill="var(--fill-0, white)"/>
<path id="Vector_6" d="M19.9231 38.906H16.9472V46.843H19.9231V38.906Z" fill="var(--fill-0, white)"/>
</g>
<path id="Vector_7" d="M25.3043 34.4763H22.4755V46.843H25.3043V34.4763Z" fill="var(--fill-0, white)"/>
<path id="Vector_8" d="M30.7034 34.4763H27.8746V46.843H30.7034V34.4763Z" fill="var(--fill-0, white)"/>
<path id="Vector_9" d="M9.72126 31.8629C12.7977 31.8629 14.2264 30.6029 14.3736 30.5095V25.1321H9.44125V27.3398H11.6849V29.1203C11.4982 29.1741 10.9238 29.3429 10.0336 29.3429C8.0879 29.3429 6.32532 28.0649 6.32532 25.3008C6.32532 22.8525 7.90124 21.3879 10.0695 21.3879C11.7208 21.3879 12.6469 22.0736 12.9628 22.2782L14.2803 20.311C14.0003 20.031 12.7582 18.8643 9.92228 18.8643C6.08481 18.8643 3.24529 21.3484 3.24529 25.4659C3.24529 29.5834 5.93404 31.8629 9.71766 31.8629" fill="var(--fill-0, white)"/>
<path id="Vector_10" d="M46.8787 22.1274H44.172L42.7827 28.0613L41.2607 22.1274H38.7586L37.2365 28.0613L35.7934 22.1274H32.9719L35.6068 31.3244H38.5181L39.8894 25.6526L41.3899 31.3244H44.4125L46.8787 22.1274Z" fill="var(--fill-0, white)"/>
<g id="Group_2">
<path id="Vector_11" d="M22.8594 21.8725L22.6835 21.8474L22.4861 21.8366C20.5835 21.8366 19.4599 23.251 19.4025 23.3443V22.113H16.9435V31.3567H19.9266V25.5413C20.2604 25.0208 21.0071 24.2741 22.3102 24.2741L22.8594 21.8653V21.8725Z" fill="var(--fill-0, white)"/>
<g id="Group_3">
<path id="Vector_12" d="M31.7694 31.4034V25.9972C31.7694 24.8592 31.8269 23.7787 31.0228 22.9746C30.2976 22.2459 29.2315 21.8941 27.8171 21.8941C26.4853 21.8941 25.4945 22.2243 24.8878 22.5079C24.6904 22.6013 24.5324 22.6874 24.4176 22.7592L25.333 24.5649C25.4442 24.5146 25.5914 24.4572 25.7637 24.3961C26.2448 24.2274 26.934 24.0408 27.6735 24.0408C28.3268 24.0408 28.6068 24.2095 28.772 24.3387C29.0735 24.5792 28.9945 25.1356 28.9945 25.4336H28.7899C27.8207 25.4336 23.6996 25.6849 23.6996 28.589C23.6996 30.3624 24.8376 31.6116 26.7007 31.6116C28.1545 31.6116 29.1058 30.7931 29.3104 30.6244V31.407H31.773L31.7694 31.4034Z" fill="var(--fill-0, white)"/>
<path id="Vector_13" d="M29.0307 28.9623C28.9374 29.0162 28.3235 29.4864 27.3148 29.4864C26.8302 29.4864 26.1589 29.2639 26.1589 28.3664C26.1589 27.9931 26.3061 27.7526 26.4748 27.5839C27.0168 27.0418 28.3199 27.0813 29.0307 27.0813V28.9659V28.9623Z" fill="var(--fill-0, #E31B22)"/>
</g>
</g>
</g>
</svg>
