<svg preserveAspectRatio="none" width="100%" height="100%" overflow="visible" style="display: block;" viewBox="0 0 58 58" fill="none" xmlns="http://www.w3.org/2000/svg">
<g id="MH Logo">
<path id="Vector" d="M58 0H0V58H58V0Z" fill="var(--fill-0, #E31B22)"/>
<path id="Vector_2" d="M22.6333 18.7509L21.0657 4.68671H17.0444L13.7498 14.3663L10.2266 4.68671H6.20537L4.72751 18.7509H8.02208L8.70386 9.36933L12.0229 18.7509H15.1134L18.2732 9.38974L19.1591 18.7509H22.6333Z" fill="var(--fill-0, white)"/>
<path id="Vector_3" d="M29.7655 19.0652C32.3824 19.0652 33.8153 17.7384 33.8765 17.6935L32.5906 15.587C32.5293 15.6278 31.472 16.3463 30.2309 16.3463C28.504 16.3463 27.6793 15.1665 27.6793 13.5008C27.6793 11.8352 28.7775 10.6961 30.4228 10.6961C31.4352 10.6961 32.3007 11.2677 32.3824 11.3289L33.7092 9.28359C33.5622 9.0713 32.2762 7.97719 29.9329 7.97719C26.7689 7.97719 24.2827 10.3573 24.2827 13.562C24.2827 16.7668 26.3688 19.0652 29.7655 19.0652Z" fill="var(--fill-0, white)"/>
<path id="Vector_4" d="M16.3463 53.2725V39.2083H12.8762V44.5849H8.19763V39.2083H4.72751V53.2725H8.19763V47.3896H12.8762V53.2725H16.3463Z" fill="var(--fill-0, white)"/>
<g id="Group">
<path id="Vector_5" d="M20.9839 42.6417C21.9759 42.6417 22.7598 41.8211 22.7598 40.8127C22.7598 39.8043 21.9759 39.0042 20.9839 39.0042C19.9918 39.0042 19.1876 39.8002 19.1876 40.8127C19.1876 41.8252 19.9918 42.6417 20.9839 42.6417Z" fill="var(--fill-0, white)"/>
<path id="Vector_6" d="M22.6579 44.2461H19.2735V53.2725H22.6579V44.2461Z" fill="var(--fill-0, white)"/>
</g>
<path id="Vector_7" d="M28.7775 39.2083H25.5605V53.2725H28.7775V39.2083Z" fill="var(--fill-0, white)"/>
<path id="Vector_8" d="M34.9176 39.2083H31.7006V53.2725H34.9176V39.2083Z" fill="var(--fill-0, white)"/>
<path id="Vector_9" d="M11.0555 36.2362C14.5542 36.2362 16.1791 34.8033 16.3464 34.6971V28.5815H10.7371V31.0923H13.2886V33.1172C13.0764 33.1784 12.4232 33.3703 11.4107 33.3703C9.19799 33.3703 7.19348 31.9169 7.19348 28.7734C7.19348 25.9892 8.9857 24.3235 11.4515 24.3235C13.3295 24.3235 14.3828 25.1033 14.742 25.336L16.2403 23.0988C15.9219 22.7803 14.5093 21.4535 11.2841 21.4535C6.91996 21.4535 3.6907 24.2786 3.6907 28.9612C3.6907 33.6438 6.74849 36.2362 11.0514 36.2362" fill="var(--fill-0, white)"/>
<path id="Vector_10" d="M53.3131 25.1645H50.2349L48.655 31.9129L46.924 25.1645H44.0785L42.3475 31.9129L40.7063 25.1645H37.4975L40.4941 35.6238H43.805L45.3645 29.1735L47.071 35.6238H50.5084L53.3131 25.1645Z" fill="var(--fill-0, white)"/>
<g id="Group_2">
<path id="Vector_11" d="M25.9971 24.8746L25.797 24.8461L25.5725 24.8338C23.4088 24.8338 22.131 26.4423 22.0656 26.5485V25.1482H19.2691V35.6606H22.6617V29.047C23.0414 28.455 23.8905 27.6058 25.3725 27.6058L25.9971 24.8665V24.8746Z" fill="var(--fill-0, white)"/>
<g id="Group_3">
<path id="Vector_12" d="M36.13 35.7137V29.5654C36.13 28.2713 36.1953 27.0424 35.2808 26.128C34.4562 25.2992 33.2437 24.8991 31.6352 24.8991C30.1206 24.8991 28.9938 25.2747 28.3038 25.5972C28.0793 25.7034 27.8997 25.8014 27.769 25.883L28.8101 27.9365C28.9366 27.8794 29.104 27.814 29.3 27.7446C29.847 27.5528 30.6309 27.3405 31.4719 27.3405C32.2149 27.3405 32.5333 27.5323 32.7211 27.6793C33.064 27.9528 32.9742 28.5856 32.9742 28.9245H32.7415C31.6392 28.9245 26.9525 29.2102 26.9525 32.513C26.9525 34.5297 28.2467 35.9504 30.3655 35.9504C32.0189 35.9504 33.1008 35.0196 33.3335 34.8278V35.7177H36.1341L36.13 35.7137Z" fill="var(--fill-0, white)"/>
<path id="Vector_13" d="M33.0155 32.9376C32.9094 32.9988 32.2112 33.5336 31.0641 33.5336C30.5129 33.5336 29.7495 33.2805 29.7495 32.2599C29.7495 31.8353 29.9169 31.5618 30.1088 31.3699C30.7252 30.7534 32.2072 30.7983 33.0155 30.7983V32.9417V32.9376Z" fill="var(--fill-0, #E31B22)"/>
</g>
</g>
</g>
</svg>
